<?xml version="1.0" encoding="UTF-8"?>
<svg id="Capa_1" xmlns="http://www.w3.org/2000/svg" viewBox="0 0 165 188">
  <defs>
    <style>
      .cls-1 {
        fill: #355c98;
      }
    </style>
  </defs>
  <path class="cls-1" d="M119.19,32.62c2.18-5.29,2.75-10.58,3.11-15.91.07-1.07.03-2.14.11-3.2.14-1.76,1.08-2.96,2.89-2.89,1.67.06,2.47,1.19,2.63,2.89.37,4.1.59,8.24,1.35,12.27.57,3.03,1.65,6.03,2.94,8.84,1.64,3.56,4.65,5.61,8.62,5.96,1.84.16,3.23.82,3.22,2.79-.01,2.11-1.57,2.6-3.43,2.89-2.36.37-4.66,1.09-6.81,1.62,1.33,5.11,2.78,9.68,3.68,14.36,2.5,13.12,1.18,25.79-4.91,37.85-3.85,7.62-7.63,15.26-9.14,23.81-1.44,8.18-2.93,16.37-4.9,24.43-1.5,6.12-3.6,12.11-5.79,18.02-1.64,4.43-4.84,7.72-9.15,9.81-6.75,3.26-12.9-.16-13.39-7.64-.25-3.8,0-7.63,0-11.44,0-7.95-.15-15.9-2.29-23.62-.68-2.46-1.7-4.95-3.12-7.05-3.31-4.92-8.86-4.87-12.32-.05-2.66,3.7-3.88,8.03-4.17,12.44-.57,8.82-.68,17.67-1.03,26.5-.07,1.82-.1,3.69-.52,5.44-1.23,5.16-5.5,7.59-10.64,6.24-4.73-1.24-7.95-4.36-10.39-8.41-3.19-5.29-4.96-11.13-6.31-17.09-1.72-7.66-3.22-15.36-4.81-23.04-3.77,1.87-4.92,1.27-5.55-2.89-1.3-8.67-4.84-12.11-13.5-13.05-1.82-.2-3.46-.67-3.49-2.82-.04-2.16,1.65-2.5,3.39-2.95,2.9-.76,5.77-1.74,8.56-2.85,1.59-.64,1.67-1.76.86-3.47-8.26-17.51-8.37-35.16-.52-52.85,7.85-17.67,29.87-23.01,42.41-17.4,2.5,1.12,5,2.27,7.41,3.58,3,1.64,5.82,1.56,8.91.07,3.89-1.88,7.84-3.85,11.99-4.91,7.5-1.91,14.84-.6,21.82,2.66.68.32,1.35.63,2.28,1.06ZM28.71,95.3c.16-.98.27-1.48.31-1.99.16-1.9.67-3.64,2.99-3.54,2.15.09,2.56,1.79,2.75,3.58.89,8.54,4.95,12.58,13.42,13.35,1.79.17,3.46.56,3.56,2.74.1,2.2-1.49,2.77-3.31,2.96-.61.06-1.27,0-1.81.23-2.51,1.02-5.05,2-7.44,3.26-.58.3-1.01,1.69-.86,2.45,1.66,8.76,3.38,17.51,5.21,26.24,1.45,6.94,3.13,13.83,6.39,20.21,1.43,2.8,3.4,5.05,6.28,6.41,3.12,1.47,5.02.49,5.51-2.94.17-1.2.06-2.44.11-3.66.31-8.76.37-17.54,1.04-26.27.44-5.8,2.13-11.42,5.89-16.11,5.13-6.4,14.02-6.81,19.26-.52,2.22,2.67,3.82,6.08,4.92,9.41,2.51,7.61,2.71,15.59,2.78,23.54.04,4.2-.19,8.4-.08,12.59.12,4.63,2.39,5.75,6.45,3.48,3.27-1.83,5.02-4.83,6.41-8.09,3.52-8.26,5.35-17,6.93-25.78,2.3-12.78,4.59-25.5,11.12-37.02,6.26-11.04,7.96-22.95,5.8-35.41-.64-3.68-1.64-7.29-2.48-10.94-.28.02-.56.04-.84.06-.35,1.85-.79,3.69-1.02,5.55-.22,1.79-.8,3.18-2.85,3.16-2.07-.02-2.61-1.49-2.8-3.24-.93-8.53-4.47-12.05-12.94-12.81-1.73-.16-3.03-.77-3.11-2.65-.09-2.01,1.22-2.72,3.05-2.95,2.51-.31,4.86-1.05,6.6-3.19-11.31-6.38-21.87-4.34-32.24,2.32.54.46,1.06.87,1.54,1.33,1.71,1.63,3.47,3.21,5.09,4.93,1.22,1.3,1.27,2.81-.14,4.03-1.31,1.13-2.67.9-3.86-.33-.21-.22-.42-.45-.63-.66-6.59-6.59-14.47-11.21-23.1-14.46-9.22-3.47-26.95.87-33.57,15.7-4.31,9.66-5.4,19.81-4.57,30.21.4,5.02,1.81,9.82,4.23,14.8Z"/>
  <path class="cls-1" d="M19.05,133.29c1.45,0,2.66-.08,3.85.02,1.76.14,2.89,1.07,2.77,2.94-.11,1.74-1.25,2.51-2.94,2.52-1.2,0-2.39,0-3.89,0,0,1.34,0,2.47,0,3.59.01,1.81-.88,3.03-2.67,3.05-1.92.02-2.81-1.29-2.82-3.17,0-1.06,0-2.13,0-3.6-1.24,0-2.43.06-3.6-.02-1.73-.12-2.95-.91-2.89-2.83.06-1.9,1.27-2.64,3.04-2.64,1.13,0,2.25,0,3.56,0,.07-1.45.11-2.73.18-4.01.09-1.63,1.04-2.59,2.59-2.65,1.57-.06,2.61.91,2.78,2.47.15,1.34.03,2.7.03,4.33Z"/>
  <path class="cls-1" d="M149.83,59.1c-1.43,0-2.63.04-3.83-.01-1.59-.07-2.6-.89-2.69-2.53-.1-1.76.93-2.71,2.59-2.88,1.26-.13,2.55-.03,3.98-.03.07-1.44.1-2.65.2-3.84.14-1.67.99-2.75,2.75-2.73,1.77.02,2.58,1.14,2.67,2.81.06,1.2.01,2.41.01,4.01,1.38,0,2.57-.02,3.76,0,1.7.03,2.82.87,2.88,2.59.07,1.86-1.11,2.76-2.87,2.87-1.2.08-2.42.01-3.95.01,0,1.28.01,2.4,0,3.52-.02,1.78-.8,3-2.68,3.02-2.01.02-2.79-1.27-2.8-3.14,0-1.12,0-2.24,0-3.67Z"/>
</svg>