<?xml version="1.0" encoding="UTF-8"?>
<svg id="Capa_1" xmlns="http://www.w3.org/2000/svg" viewBox="0 0 205 188">
  <defs>
    <style>
      .cls-1 {
        fill: #355c98;
      }
    </style>
  </defs>
  <path class="cls-1" d="M79.48,64.25c5,0,10.1,1.15,15.59,3.53,2.81,1.21,5.42,1.8,7.98,1.8s5.15-.59,7.81-1.8c2.5-1.14,5.02-2,7.54-2.58-2.72,2.72-5.44,5.44-8.16,8.16-8.24,8.23-16.75,16.75-25.09,25.18-2.02,2.05-3.58,4.61-4.37,7.22-1.82,5.95,1.25,12.53,7.28,15.65,2.24,1.16,4.72,2.01,7.34,2.53-1.13.66-2.22,1.47-3.26,2.42-4.18,3.84-6.64,9.01-7.32,15.37-.35,3.26-.4,6.46-.45,9.55-.01.83-.03,1.65-.05,2.48-.1,4.3-.32,8.44-1.89,11.8-.14.3-.32.62-.52.93-1.32-4.01-2.24-7.84-2.74-11.38-1.25-8.78-1.55-17.97-.92-28.1.58-9.32-.68-17.85-3.86-26.09-3.51-9.09-5.22-16.54-5.37-23.45-.06-2.7.17-5.16.69-7.32.85-3.53,3.29-5.48,7.24-5.8.84-.07,1.69-.1,2.53-.1M128.44,111.65c-1.03,6.05-1,11.86-.75,17.09.49,10.24.59,22.31-2.45,34.2-.35,1.39-.83,2.7-1.39,3.88-.95-1.82-1.53-4.16-1.85-7.34-.16-1.58-.18-3.26-.21-5.03-.03-1.86-.06-3.79-.24-5.8l-.03-.35c-.37-4.07-.76-8.27-1.93-12.5-1.1-3.95-3.68-7.17-5.66-9.18-1.25-1.27-2.6-2.3-4.04-3.07,5.35-1.31,10.26-3.87,13.92-7.37,1.57-1.5,3.11-3.02,4.64-4.54M79.48,57.75c-1.01,0-2.03.04-3.05.12-6.62.53-11.49,4.32-13.04,10.75-.7,2.9-.94,5.99-.87,8.99.2,8.92,2.63,17.43,5.81,25.66,2.93,7.59,3.94,15.29,3.44,23.34-.62,9.83-.42,19.67.97,29.43.64,4.49,1.81,8.96,3.26,13.26.71,2.1,2.51,3.9,4.03,5.64.51.58,1.16.89,1.81.89s1.24-.28,1.73-.89c1.72-2.11,3.61-4.2,4.75-6.62,2.11-4.51,2.39-9.47,2.51-14.41.09-3.83.05-7.68.46-11.48.46-4.29,1.96-8.25,5.26-11.28,2.03-1.86,4.28-2.82,6.5-2.82,2.2,0,4.36.94,6.27,2.87,1.74,1.77,3.38,4.04,4.03,6.37,1.05,3.77,1.39,7.77,1.75,11.69.33,3.61.1,7.28.46,10.88.49,4.94,1.68,9.75,5.26,13.47,1.39,1.44,2.38,2.29,3.38,2.29s1.91-.76,3.25-2.49c1.94-2.52,3.33-5.73,4.12-8.85,3.03-11.85,3.23-24,2.64-36.12-.43-8.86.02-17.46,3.61-25.72.91-2.09,1.57-4.3,2.14-6.51,1.2-4.6,2.26-9.23,3.37-13.85-.24-.21-.47-.41-.71-.62-.78.37-1.68.6-2.31,1.14-1.28,1.09-2.33,2.44-3.62,3.51-1.62,1.36-2.33,2.94-2.25,5.08.11,2.99-.75,5.72-2.94,7.9-4.05,4.04-8.03,8.17-12.16,12.12-4.46,4.27-11.13,6.55-17.6,6.55-3.79,0-7.51-.79-10.68-2.42-3.15-1.62-4.99-4.89-4.04-7.98.5-1.65,1.55-3.31,2.78-4.54,11.6-11.73,23.3-23.37,34.95-35.04.46-.46,1.19-1.03,1.18-1.54-.06-3.34,1.3-6.06,3.8-8.61-1.17-.06-1.96-.12-2.75-.14-.22,0-.45,0-.67,0-6.34,0-12.42,1.5-18.11,4.09-1.82.83-3.48,1.22-5.12,1.22-1.75,0-3.49-.44-5.4-1.27-5.78-2.5-11.84-4.06-18.17-4.06h0Z"/>
  <path class="cls-1" d="M59.61,140.4c-.02,2.76,0,5.45.1,8.19.31,7.84,1.43,14.76,3.43,21.16.35,1.12.76,2.32,1.26,3.56H12.45c0-.06,0-.12,0-.18,0-3.24.01-6.58-.03-9.9,11.5-8.99,24.55-15.76,39.86-20.68,2.36-.76,4.79-1.45,7.32-2.14M66.17,131.86c-5.8,1.63-10.89,2.89-15.87,4.49-15.63,5.02-30.09,12.31-42.96,22.61-.97.77-1.45,1.55-1.42,2.86.08,5.45.03,10.91.04,16.36,0,.57.08,1.15.11,1.62h70.83c-4.1-3.24-6.12-7.44-7.54-12-1.98-6.34-2.88-12.87-3.14-19.47-.21-5.3-.04-10.61-.04-16.47h0Z"/>
  <path class="cls-1" d="M146.34,140.36c5.69,1.51,11.23,3.36,16.79,5.59,11.21,4.5,21.42,10.3,30.36,17.25-.06,3.37-.06,6.77-.05,10.09h-51.85c2.15-5.08,3.1-10.54,3.71-15.9.61-5.38.82-10.76,1.01-15.97.01-.35.03-.71.04-1.06M140.09,132.2c0,.88.03,1.6,0,2.31-.38,7.39-.42,14.82-1.25,22.15-.97,8.5-2.63,16.92-9.66,23.14h70.78c0-5.86-.08-11.58.05-17.29.04-1.83-.6-2.92-1.99-4.02-9.91-7.79-20.78-13.88-32.46-18.57-8.18-3.28-16.58-5.86-25.46-7.73h0Z"/>
  <path class="cls-1" d="M191.24,14.5c.22,0,.49.05.78.13.85.25,1.2.86,1.34,1.33.12.41.23,1.21-.42,2-.13.16-.36.39-.58.61-12.96,12.97-25.93,25.93-38.9,38.9l-2.58-2.57-.4-.4c3.18-3.18,6.35-6.35,9.53-9.53,9.61-9.61,19.55-19.54,29.31-29.34,1.12-1.13,1.73-1.13,1.93-1.13M191.24,8c-2.44,0-4.59,1.09-6.53,3.04-14.07,14.12-28.18,28.2-42.27,42.3-.41.41-.78.87-1.09,1.22,4.04,4.04,7.99,7.98,12.08,12.07.22-.21.52-.47.81-.75,14.24-14.24,28.48-28.47,42.71-42.71.33-.33.66-.67.97-1.03,3.96-4.73,1.88-11.97-4.04-13.73-.92-.27-1.79-.4-2.64-.4h0Z"/>
  <path class="cls-1" d="M103.03,151.43c.08,1.27.13,2.56.18,3.91.11,2.81.22,5.71.63,8.69.47,3.41,1.29,6.51,2.47,9.31h-6.76c1.56-3.67,2.53-7.82,2.95-12.54.28-3.16.41-6.31.53-9.38M102.97,134.08s-.05,0-.07,0c-3.21.04-4.33,3.03-5.2,5.71-.41,1.27-.76,2.61-.84,3.93-.32,5.5-.35,11.03-.83,16.52-.54,6.11-2.13,11.92-6.26,16.74-.84.98-1.72,1.94-2.54,2.87h32.01c-5.72-4.47-8.07-10.29-8.95-16.7-.61-4.45-.5-8.99-.87-13.48-.28-3.34-.57-6.71-1.31-9.96-.61-2.7-1.95-5.63-5.14-5.63h0Z"/>
  <path class="cls-1" d="M122.44,87.55c-.08.79-.08,1.59-.01,2.42.06.73.11,1.41-1.54,2.9-2.26,2.04-4.36,4.18-6.39,6.25-1.17,1.2-2.28,2.34-3.43,3.45-1.51,1.48-4.03,2.6-6.72,3.07,6.03-6.03,12.06-12.06,18.09-18.09M128.42,72.51c-.21.16-.39.26-.53.4-11.48,11.47-22.96,22.94-34.42,34.42-1.56,1.56-1.34,2.55.65,3.5,2.19,1.05,4.79,1.54,7.47,1.54,5.17,0,10.63-1.85,14.02-5.16,3.22-3.15,6.27-6.51,9.62-9.52,2.54-2.28,3.95-4.79,3.67-8.26-.19-2.35.69-4.3,2.57-5.84,1.48-1.22,2.82-2.61,4.18-3.87-2.58-2.58-4.86-4.85-7.23-7.22h0Z"/>
  <path class="cls-1" d="M136.8,58.76c-1.27,1.34-2.69,2.76-4.02,4.26-1.53,1.72-1.6,3.8-.05,5.46,2.15,2.31,4.39,4.54,6.69,6.7.81.76,1.76,1.14,2.71,1.14s1.82-.35,2.6-1.03c1.55-1.36,2.95-2.88,4.29-4.2-4.11-4.14-8.07-8.14-12.23-12.33h0Z"/>
</svg>