<?xml version="1.0" encoding="UTF-8"?>
<svg id="Capa_1" xmlns="http://www.w3.org/2000/svg" viewBox="0 0 113 188">
  <defs>
    <style>
      .cls-1 {
        fill: #355c98;
      }
    </style>
  </defs>
  <path class="cls-1" d="M19.15,182.5c-3.43-1.38-4.63-3.91-4.62-7.59.1-26.27.04-52.55.09-78.82,0-1.69.33-3.43.81-5.06.95-3.25,2.21-6.42,3.16-9.67.8-2.74,2.2-4.53,5.39-4.31v-27.88c-2.93-1.2-5.84-2.03-8.39-3.49-8.34-4.75-12.39-14.87-9.82-24.09.24-.87.81-1.93,1.54-2.3.7-.36,2.14-.29,2.64.21.64.63,1.06,1.97.86,2.85-.7,3.16-.86,6.25.03,9.39,2.23,7.85,9.93,12.82,18.24,11.76,7.84-1.01,13.94-7.99,14.1-16.14.15-7.96-5.7-15-13.58-16.39-4.35-.77-8.35.09-12.03,2.49-1.16.76-2.31,1.09-3.52.22-1.59-1.16-1.35-3.16.5-4.44,7.16-4.99,17.14-4.96,24.38.07,7.2,5,10.75,13.69,9.02,22.04-1.83,8.83-8.38,15.35-17.17,17.1-.45.09-.89.22-1.42.35v28.27c3.37-.3,4.45,1.83,5.55,4.54,3.19,7.88,4.15,15.94,4.04,24.43-.3,22.81-.16,45.63-.05,68.45.02,3.73-.99,6.5-4.54,8.03h-15.21ZM19.78,134.85c0,13.84,0,27.49,0,41.14,0,1.11.58,1.34,1.53,1.33,3.4-.03,6.8-.11,10.2.03,1.82.07,2.21-.61,2.2-2.29-.06-12.79-.03-25.58-.03-38.37v-1.84h-13.88ZM19.8,100.94h13.8c.15-3.65.29-7.01-1.16-10.23-.61-1.35-.97-2.82-1.44-4.23-1.47-4.39-1.46-4.36-6.06-4.25-.94.02-1.29.4-1.55,1.2-.86,2.68-1.61,5.4-2.68,7.99-1.26,3.06-.86,6.18-.91,9.52ZM33.58,106.27h-13.65v4.11h13.65v-4.11ZM19.85,129.46h13.67v-4.12h-13.67v4.12ZM19.89,115.79v4.11h13.63v-4.11h-13.63Z"/>
  <path class="cls-1" d="M85.89,182.5c-3.46-1.49-4.56-4.13-4.55-7.84.1-26.33.04-52.66.08-78.99,0-1.35.26-2.75.66-4.04,1.06-3.46,2.37-6.85,3.38-10.33.78-2.69,2.16-4.42,5.39-4.25,0-1.3-.04-2.49,0-3.68.21-5.1,2.42-9,6.87-11.64,4.03-2.39,5.76-6.19,4.82-10.33-1.19-5.28-6.42-8.39-11.64-6.94-.28.08-.55.17-.83.24-1.57.42-2.93-.18-3.41-1.5-.52-1.44.17-2.86,1.8-3.4,5.06-1.69,9.8-1.05,14.02,2.28,7.82,6.16,7.25,18.43-1.29,23.53-4.55,2.71-5.62,6.48-5.02,11.46,3.63-.4,4.57,2.09,5.71,4.91,3.1,7.67,3.96,15.53,3.86,23.77-.28,22.99-.15,45.98-.04,68.96.02,3.73-1.09,6.35-4.6,7.78h-15.21ZM86.58,134.85c0,13.79,0,27.39-.01,40.98,0,1.14.46,1.51,1.56,1.5,3.34-.04,6.68-.01,10.03-.01q2.3,0,2.31-2.26c0-12.79,0-25.58,0-38.37v-1.83h-13.88ZM100.38,106.21c-1.66-.14-2.95-.72-3.06-2.5-.12-2.07,1.38-2.67,3.08-2.92.15-3.56.3-7-1.19-10.27-.59-1.3-.93-2.72-1.38-4.08-1.47-4.4-1.48-4.43-6.09-4.14-.5.03-1.22.57-1.4,1.04-1.02,2.75-1.75,5.61-2.87,8.31-1.26,3.02-.75,6.09-.88,9.15,2.66.33,3.7,1.09,3.76,2.66.06,1.61-.99,2.44-3.68,2.83v4.14h13.71v-4.21ZM100.31,129.52v-4.18h-13.6v4.18h13.6ZM86.63,119.9h13.68v-4.05h-13.68v4.05Z"/>
  <path class="cls-1" d="M52.69,182.5c-3.46-1.34-4.78-3.86-4.68-7.55.17-6.33,0-12.67.09-19.01.01-.94.37-2.11,1-2.76,1.25-1.28,3.49-.5,3.96,1.27.18.65.17,1.37.17,2.05.01,6.28.04,12.56-.02,18.83-.01,1.46.39,2.05,1.95,2.01,3.45-.1,6.91-.06,10.37-.02,1.19.02,1.64-.43,1.64-1.62-.02-13.36-.02-26.73-.02-40.09,0-.22-.06-.44-.1-.74h-13.81c0,2.31.01,4.53,0,6.76,0,.69,0,1.4-.16,2.06-.31,1.29-1.22,1.93-2.53,1.89-1.31-.04-2.16-.74-2.4-2.05-.1-.56-.09-1.15-.09-1.72,0-15.44-.02-30.87.02-46.31,0-1.3.24-2.64.63-3.88,1.11-3.57,2.44-7.07,3.51-10.65.78-2.63,2.29-4.05,5.3-3.93,0-2.97.09-5.89-.03-8.8-.1-2.58.53-4.77,2.54-6.48.98-.84.8-1.62-.08-2.46-1.46-1.39-2.87-2.83-4.28-4.28-1.3-1.33-1.4-2.88-.32-3.97,1.07-1.07,2.66-.96,3.97.32,1.61,1.57,3.21,3.14,4.76,4.77,2.51,2.62,2.57,6.23,0,8.82-1.08,1.09-1.47,2.18-1.42,3.65.09,2.75.03,5.51.03,8.44,3.52-.34,4.6,1.84,5.72,4.6,3.18,7.88,4.14,15.95,4.03,24.43-.3,22.98-.14,45.96-.07,68.94.01,3.68-1.29,6.21-4.83,7.45h-14.87ZM57.25,82.26c-1.64,6.13-5.11,11.8-3.8,18.53h13.59c0-2.32.41-4.59-.09-6.65-.9-3.72-2.31-7.33-3.58-10.96-.14-.4-.75-.86-1.17-.89-1.6-.1-3.21-.04-4.94-.04ZM53.35,110.38h13.67v-4.12h-13.67v4.12ZM67.1,125.33h-13.71v4.15h13.71v-4.15ZM67.09,115.86h-13.7v4.02h13.7v-4.02Z"/>
  <path class="cls-1" d="M25.95,15.11c2.01-.08,3.12.68,3.28,2.24.17,1.67-.82,2.67-2.86,2.92-4,.49-6.09,2.62-6.58,6.7-.23,1.88-1.27,2.88-2.87,2.75-1.5-.13-2.33-1.23-2.3-3.07.09-6.05,5.25-11.29,11.34-11.54Z"/>
</svg>