<?xml version="1.0" encoding="UTF-8"?>
<svg id="Capa_1" xmlns="http://www.w3.org/2000/svg" viewBox="0 0 287 149">
  <defs>
    <style>
      .cls-1 {
        fill: #355c98;
      }
    </style>
  </defs>
  <path class="cls-1" d="M23.44,54.03c-.47-1.48-.7-2.84-1.34-3.98-.38-.67-1.36-1.33-2.12-1.4-2.06-.2-4.15,0-6.22-.09-2.8-.11-4.61-1.85-4.64-4.29-.03-2.57,1.83-4.27,4.81-4.34,1.35-.03,2.7,0,4.35,0-.74-2.21-1.53-4.19-2.05-6.24-3.86-15.11,6.81-27.05,22.73-24.87,6.27.86,12.38,3.04,18.47,4.94,2.57.8,4.82,1.01,7.31-.06,6.84-2.92,13.91-5.07,21.44-5.13,6.09-.05,11.61,1.54,16.03,6.45,5.89-6.12,13.24-7.4,21.15-5.99,4.59.82,9.31,1.73,13.53,3.6,4.72,2.09,8.73,1.83,13.41-.04,4.71-1.89,9.83-3.02,14.88-3.75,7.26-1.06,14.05.33,19.46,6.11,9.59-9.19,20.74-7.38,31.39-3.38,7.1,2.67,13.14,2.82,20.09-.08,4.7-1.96,10.17-2.71,15.31-2.81,14.61-.28,23.39,11.92,19.09,25.92-.52,1.71-1.14,3.38-1.8,5.33,1.76,0,3.28-.06,4.8.01,2.58.12,4.34,1.86,4.37,4.23.03,2.35-1.69,4.17-4.27,4.38-1.44.11-2.89.04-4.33.04-4.47,0-5.08.63-5.35,5.61.93.2,1.9.36,2.84.61,6.44,1.75,11.06,7.39,11.09,14.07.09,22.31.05,44.61.03,66.92,0,3.18-1.68,4.77-4.86,4.91-.54.02-1.08,0-1.63,0-85.25,0-170.5,0-255.75,0-.27,0-.54,0-.81,0-4.25-.04-5.73-1.48-5.74-5.67-.01-12.28,0-24.56,0-36.85,0-8.67,0-17.34,0-26.01,0-10.85,3.51-15.39,14.35-18.15ZM179.47,62.93c0,1.69.01,3.02,0,4.35-.07,6.59.22,13.21-.33,19.76-.46,5.52-1.32,11.15-3.04,16.39-1.91,5.82-7.83,6.88-12.42,2.78-1.33-1.18-2.54-2.62-3.42-4.16-2.1-3.67-4-7.47-5.93-11.24-2.59-5.06-4.94-10.24-7.74-15.17-2.29-4.02-4.11-4.02-6.3-.01-2.94,5.37-5.41,11-8.24,16.44-2.16,4.15-4.38,8.29-6.95,12.19-1.9,2.89-4.76,4.86-8.48,4.25-3.9-.63-5.87-3.59-6.61-7.08-1.04-4.83-1.92-9.75-2.21-14.68-.41-7.02-.26-14.08-.24-21.12,0-2.06-.58-2.99-2.78-2.75-1.61.18-3.26.16-4.87,0-2.23-.22-2.98.59-2.96,2.85.08,6.86.28,13.75-.21,20.58-.4,5.54-1.17,11.17-2.78,16.46-2.02,6.65-8.55,7.86-13.37,2.8-1.96-2.06-3.58-4.55-4.89-7.09-3.15-6.08-5.97-12.34-9.04-18.46-1.04-2.08-2.33-4.07-3.68-5.97-1.29-1.82-2.87-1.85-4.13.06-1.29,1.95-2.54,3.95-3.58,6.04-3.04,6.14-5.79,12.43-9,18.48-1.49,2.83-3.43,5.6-5.75,7.76-4.22,3.92-9.53,2.65-12.02-2.54-.7-1.45-1.21-3.02-1.55-4.59-2.18-9.96-2.08-20.08-1.96-30.2.02-1.96,0-3.92,0-5.86-4.76-.24-7.23,2.21-7.24,6.92-.02,19.96-.01,39.92,0,59.88,0,.6.09,1.21.14,1.81h251.3c0-21.06.04-41.91-.04-62.77-.02-3.81-2.89-6.06-7.18-5.84,0,1.4.02,2.82,0,4.24-.11,6.95.06,13.92-.46,20.84-.37,4.9-1.17,9.9-2.69,14.56-2.12,6.52-8.43,7.75-13.2,2.83-2.04-2.1-3.71-4.68-5.07-7.29-3.07-5.92-5.8-12.02-8.78-17.99-1.08-2.17-2.36-4.27-3.79-6.23-1.48-2.02-2.88-1.99-4.29.03-1.29,1.84-2.44,3.8-3.44,5.81-3.08,6.22-5.92,12.57-9.14,18.72-1.4,2.68-3.21,5.3-5.37,7.39-4.45,4.3-9.98,3.03-12.52-2.6-.66-1.47-1.24-3.04-1.48-4.62-.66-4.37-1.39-8.75-1.59-13.15-.29-6.31-.16-12.64-.18-18.96-.01-3.88,0-3.88-3.74-3.88-2.07,0-4.14,0-6.78,0ZM168.07,98.6c.38-.04.76-.08,1.13-.12.47-4.18,1.18-8.35,1.35-12.55.34-8.56.21-17.15.65-25.71.2-3.82,1.32-7.59,2.03-11.47h-16.24c0,1.15.02,2.13,0,3.11-.12,4.95-3.08,8.17-8.04,8.41-3.69.18-7.41.19-11.1,0-4.73-.24-7.72-3.54-7.85-8.32-.03-1.05,0-2.1,0-3.21h-16.27c.73,4.04,1.86,7.9,2.06,11.82.45,8.83.33,17.69.68,26.52.15,3.85.9,7.68,1.38,11.52.35.04.69.08,1.04.12,2.07-4.07,4.11-8.16,6.22-12.21,2.99-5.75,5.9-11.55,9.13-17.16,1.5-2.6,3.88-4.51,7.02-5.12,4.83-.94,8.78.82,11.2,4.81,3.45,5.68,6.35,11.7,9.45,17.59,2.09,3.97,4.11,7.97,6.17,11.96ZM35.13,98.52c.36.05.72.11,1.07.16.73-1.22,1.55-2.39,2.17-3.66,2.74-5.58,5.26-11.28,8.19-16.76,2.03-3.79,4.2-7.64,6.99-10.86,4.17-4.81,10.67-4.68,15.03-.03,1.95,2.08,3.6,4.54,4.95,7.06,2.34,4.37,4.28,8.95,6.49,13.38,1.83,3.66,3.82,7.25,5.74,10.87.91-1.22,1.31-2.23,1.36-3.25.45-8.64,1.03-17.29,1.19-25.94.12-6.53.42-12.98,2.41-19.25.15-.47.1-.99.15-1.53h-16.32c0,1.11.02,2.08,0,3.05-.14,5.03-3.01,8.24-7.96,8.5-3.78.2-7.59.21-11.37,0-4.6-.26-7.53-3.59-7.64-8.22-.03-1.06,0-2.12,0-3.32h-15.77c.63,6.38,1.4,12.71,1.82,19.06.27,4.04-.17,8.13.05,12.19.33,6.19.95,12.37,1.45,18.55ZM196.12,48.7c.72,3.73,1.84,7.31,2.03,10.95.44,8.65.32,17.32.67,25.97.18,4.33.91,8.63,1.4,12.95.29.03.58.06.87.09.55-.9,1.17-1.76,1.63-2.7,2.87-5.82,5.57-11.72,8.59-17.46,1.92-3.65,3.94-7.36,6.53-10.53,4.45-5.45,11.27-5.43,15.99-.23,1.74,1.92,3.24,4.13,4.45,6.43,2.31,4.38,4.29,8.94,6.51,13.37,1.88,3.75,3.9,7.44,5.85,11.15.84-1.04,1.19-1.87,1.25-2.73.52-8.18,1.27-16.37,1.37-24.56.09-7.34.16-14.61,2.44-21.67.1-.3.01-.65.01-.93h-16.3c0,1.11,0,2,0,2.9-.06,5.04-2.89,8.29-7.83,8.57-3.78.21-7.59.21-11.37-.01-4.79-.28-7.65-3.51-7.79-8.37-.03-1.04,0-2.08,0-3.18h-16.3ZM74.74,39.91h12.83q7.04,0,9.35-6.67c3.42-9.87-1.67-16.61-12.08-16-.54.03-1.1.04-1.61.18-4.94,1.35-10.01,2.36-14.77,4.19-5.12,1.97-9.88,2.2-14.89-.13-5.61-2.62-11.61-3.99-17.79-4.24-7.73-.32-12.25,4.21-11.43,11.89.36,3.41,1.97,6.7,3.1,10.01.12.35.8.72,1.22.73,6.21.05,12.41.03,18.89.03,0-1.13,0-2.01,0-2.88.05-5.68,3.21-8.86,8.89-8.94,1.9-.03,3.79,0,5.69,0,10.1,0,11.73,1.48,12.58,11.84ZM130,39.9c0-1.44-.03-2.52,0-3.6.16-4.69,3.31-8.01,8-8.19,3.69-.14,7.4-.15,11.1,0,4.57.19,7.68,3.46,7.88,8.02.05,1.21,0,2.42,0,3.76h13.15q6.86,0,9.16-6.55c3.53-10.08-1.81-16.99-12.44-16.09-.36.03-.73.04-1.07.13-4.94,1.35-10.02,2.34-14.77,4.18-5.21,2.01-10.05,2.25-15.14-.14-5.61-2.63-11.61-3.96-17.79-4.2-6.27-.24-10.09,2.69-11.23,8.28-1.03,5.05,1.48,9.31,3.1,13.76.12.32.86.59,1.32.59,6.12.04,12.24.03,18.72.03ZM239.53,39.6c.35.14.51.25.67.26,4.15.02,8.3.04,12.45.05q6.75,0,9.03-6.35c3.68-10.28-1.88-17.41-12.7-16.26-.27.03-.54.04-.8.11-4.94,1.36-10.02,2.35-14.77,4.19-5.22,2.02-10.06,2.19-15.14-.19-5.61-2.62-11.62-3.95-17.8-4.17-6.37-.23-10.2,2.81-11.24,8.6-.89,4.95,1.6,9.12,3.18,13.49.1.28.72.54,1.1.54,6.21.03,12.41.02,18.78.02.05-1.12.11-2,.13-2.88.1-5.69,3.23-8.83,8.94-8.94,1.99-.04,3.97,0,5.96,0,9.84,0,11.61,1.66,12.21,11.53ZM148.14,51.49v-14.57h-9.34v14.57h9.34ZM56.39,36.85v14.56h9.3v-14.56h-9.3ZM221.29,36.86v14.65h9.26v-14.65h-9.26ZM105.39,54.11c.2-.16.39-.31.59-.47-1.59-1.47.15-5.16-3.74-5.03-3.67.12-2.25,3.47-3.75,5.5h6.9ZM188.11,54.1c-.85-4.98-1.46-5.94-3.9-5.47-2.97.57-2.04,3.4-3.15,5.47h7.05Z"/>
</svg>