<?xml version="1.0" encoding="UTF-8"?>
<svg id="Capa_1" xmlns="http://www.w3.org/2000/svg" viewBox="0 0 287 99">
  <defs>
    <style>
      .cls-1 {
        fill: #355c98;
      }
    </style>
  </defs>
  <path class="cls-1" d="M143.23,26.87c10.87-17.41,38.19-24.81,51.62-6.21,5.79-6.15,12.93-9.6,21.28-10.46,8.51-.88,16.15.7,21.51,8.42,3.98-3.78,8.4-6.57,13.66-7.98,13.05-3.5,23.15,2.72,25.51,16.03,2,11.33,1.31,22.65-.68,33.94-.94,5.32-4.3,8.58-8.95,10.65-9.13,4.06-18.7,5.5-28.64,4.43-.87-.09-1.94-.18-2.62.23-9.81,5.87-20.68,6.98-31.76,7.18-.19,0-.37,0-.56-.01-5.27-.58-10.11-.74-15.28,2.18-3.87,2.19-9.19,2.22-13.89,2.41-8.17.32-16.45.67-24.53-.3-4.58-.55-8.7-.72-13.32.04-10.89,1.81-21.92.93-32.85-.65-4.02-.58-7.82-1.55-11.08-4.19-.55-.45-1.7-.29-2.55-.19-13.78,1.56-27.14.56-39.56-6.39-.71-.4-1.75-.41-2.61-.31-9.46,1.07-18.57-.32-27.38-3.81-6.09-2.41-9.8-6.58-10.7-13.4-1.44-10.97-2.34-21.92.02-32.82,2.76-12.76,12.52-18.42,25.17-15.04,5.26,1.4,9.71,4.15,13.78,8.08,2.89-4.68,7.11-7.2,12.21-8.2,6.69-1.3,13.27-.55,19.36,2.42,4.03,1.97,7.68,4.72,11.87,7.35-.54.26-.31.23-.22.09,8.42-11.77,22.41-12.89,34.9-7.46,5.85,2.55,10.65,6.44,14.46,11.57.54.73,1.09,1.45,1.81,2.41ZM94.5,73.8c2.01,3.92,3.66,5.15,8.45,6.01,10.24,1.84,20.57,2.1,30.92,1.43,3.19-.21,6.28-.91,8.21-4,.23-.36,2.04-.36,2.28.01,2.09,3.28,5.4,4,8.77,4,8.1,0,16.22,0,24.28-.62,5.78-.44,12.26-.28,14.59-7.03,2.29.83,4.21,1.91,6.25,2.19,10.73,1.49,21.2.26,31.19-3.98,2.2-.93,3.99-2.83,6.09-4.38.86.36,2.14,1.25,3.52,1.44,9.29,1.24,18.17-.21,26.59-4.36,2.35-1.16,3.74-3.07,4.01-5.68.57-5.56,1.49-11.12,1.49-16.69,0-5.55-.5-11.19-1.58-16.63-1.23-6.26-5.84-9.53-12.23-9.07-9.3.66-15.6,5.91-19.8,13.97-.49.94-1.01,1.86-1.92,3.53-.58-1.56-.92-2.35-1.16-3.17-.59-2.05-1.1-4.13-1.7-6.18-1.34-4.56-4.66-6.99-9.13-7.52-3.09-.37-6.37-.35-9.42.23-9.36,1.79-15.72,7.26-18.75,16.42-.52,1.57-1.2,3.08-1.8,4.62-.38-.06-.75-.12-1.13-.18-.21-1.69-.45-3.37-.62-5.07-.9-8.86-6.45-14.87-15.06-16.28-13.54-2.21-27.59,7.51-30.8,21.33-.42,1.81-.65,3.68-1.2,5.45-.19.63-1.07,1.45-1.63,1.45-.56,0-1.33-.84-1.61-1.49-.4-.91-.45-1.99-.64-2.99-2.33-12.33-9.65-20.13-21.7-23.28-11.86-3.09-23.93,2.43-24.84,17.23-.08,1.22-.43,2.43-.66,3.65-.31.04-.61.09-.92.13-.56-1.36-1.22-2.69-1.67-4.09-3.02-9.35-9.29-15.27-18.95-16.94-13.94-2.41-18.15,2.23-20.19,13.25-.1.55-.16,1.12-.37,1.63-.16.38-.54.67-1.12,1.33-.6-1.13-1.08-1.98-1.51-2.85-3.12-6.42-7.95-10.98-14.75-13.27-9.58-3.22-16.44.91-18.11,10.87-1.67,9.95-1.01,19.87.44,29.79.51,3.53,2.29,5.74,5.44,7.14,7.12,3.17,14.59,4.48,22.32,4.04,2.39-.14,4.73-1.06,6.62-1.52,2.33,1.54,4.5,3.52,7.04,4.56,9.05,3.68,18.58,4.69,28.25,3.84,2.67-.23,5.25-1.44,8.23-2.3Z"/>
</svg>